# xmcd
#
# Track frame offsets:
#	150
#	16960
#	34117
#	49547
#	66842
#	82320
#	98075
#	114707
#	131750
#	147892
#	168621
#	182553
#	200861
#	221653
#	240998
#	258846
#
# Disc length: 3795 seconds
#
# Revision: 0
# Processed by: cddbd v1.5.2PL0 Copyright (c) Steve Scherf et al.
# Submitted via: EasyCDDAExtractor 10.0.1.1
#
DISCID=e80ed110
DTITLE=Blue - Best of Blue
DYEAR=1900
DGENRE=
TTITLE0=All rise
TTITLE1=Too close
TTITLE2=If you come back
TTITLE3=Fly by II
TTITLE4=One love
TTITLE5=Sorry seems to be the hardest word
TTITLE6=U make me wanna
TTITLE7=Guilty
TTITLE8=Signed,sealed,delivered im yours
TTITLE9=Breathe easy
TTITLE10=Bubblin
TTITLE11=Curtain falls
TTITLE12=Get down on it
TTITLE13=One love the sequel
TTITLE14=Love at first sight
TTITLE15=Best in me (2004)
EXTD=
EXTT0=
EXTT1=
EXTT2=
EXTT3=
EXTT4=
EXTT5=
EXTT6=
EXTT7=
EXTT8=
EXTT9=
EXTT10=
EXTT11=
EXTT12=
EXTT13=
EXTT14=
EXTT15=
PLAYORDER=
